<svg id="Layer_1" data-name="Layer 1" xmlns="http://www.w3.org/2000/svg" viewBox="0 0 137.14 137.14"><defs><style>.cls-1{fill:#fff;}</style></defs><path class="cls-1" d="M96,61.72H75.43V41.14h6.86L68.57,20.57,54.86,41.14h6.86V61.72H41.14V54.86L20.57,68.57,41.14,82.29V75.43H61.72V96H54.86l13.71,20.57L82.29,96H75.43V75.43H96v6.86l20.57-13.72L96,54.86ZM109.71,0H27.43A27.43,27.43,0,0,0,0,27.43v82.29a27.43,27.43,0,0,0,27.43,27.42h82.29a27.42,27.42,0,0,0,27.42-27.42V27.43A27.43,27.43,0,0,0,109.71,0Zm13.72,102.86a20.57,20.57,0,0,1-20.57,20.57H34.29a20.57,20.57,0,0,1-20.58-20.57V34.29A20.57,20.57,0,0,1,34.29,13.71h68.57a20.57,20.57,0,0,1,20.57,20.58v68.57Z"/></svg>