<?xml version='1.0' encoding='iso-8859-1'?>
<svg version="1.1" xmlns="http://www.w3.org/2000/svg" viewBox="0 0 137.145 137.145" xmlns:xlink="http://www.w3.org/1999/xlink" enable-background="new 0 0 137.145 137.145">
  <g>
    <g>
      <path d="M96.001,61.715H75.43V41.143h6.857L68.573,20.572L54.858,41.143h6.857v20.572H41.144v-6.858L20.572,68.572l20.572,13.715    V75.43h20.572v20.572h-6.857l13.714,20.572l13.714-20.572H75.43V75.43h20.571v6.857l20.572-13.715L96.001,54.858V61.715z     M109.715,0H27.429C12.281,0,0,12.281,0,27.428v82.287c0,15.148,12.28,27.429,27.429,27.429h82.286    c15.149,0,27.429-12.281,27.429-27.429V27.428C137.144,12.281,124.864,0,109.715,0z M123.43,102.858    c0,11.361-9.21,20.572-20.571,20.572H34.286c-11.361,0-20.572-9.211-20.572-20.572V34.286c0-11.361,9.21-20.572,20.572-20.572    h68.572c11.361,0,20.571,9.211,20.571,20.572V102.858z"/>
    </g>
  </g>
</svg>
