<?xml version='1.0' encoding='iso-8859-1'?>
<svg version="1.1" xmlns="http://www.w3.org/2000/svg" viewBox="0 0 137.144 137.144" xmlns:xlink="http://www.w3.org/1999/xlink" enable-background="new 0 0 137.144 137.144">
  <g>
    <g>
      <path d="m75.429,27.429h-13.714v55.698c-2.154-0.511-4.44-0.839-6.857-0.839-11.361,0-20.572,6.14-20.572,13.715 0,7.574 9.211,13.714 20.572,13.714 7.595,0 14.155-2.776 17.718-6.857h2.854v-48.003c23.399-0.196 27.429,27.429 27.429,27.429s0.771-28.523-6.857-41.144c-5.773-9.549-20.573-13.713-20.573-13.713zm34.286-27.429h-82.286c-15.149,0-27.429,12.28-27.429,27.429v82.287c0,15.148 12.28,27.429 27.429,27.429h82.286c15.149,0 27.429-12.28 27.429-27.429v-82.287c0-15.149-12.28-27.429-27.429-27.429zm13.715,102.858c0,11.362-9.21,20.571-20.571,20.571h-68.573c-11.361,0-20.572-9.21-20.572-20.571v-68.572c0-11.361 9.21-20.572 20.572-20.572h68.572c11.361,0 20.571,9.21 20.571,20.572v68.572z"/>
    </g>
  </g>
</svg>
