<svg id="Layer_1" data-name="Layer 1" xmlns="http://www.w3.org/2000/svg" viewBox="0 0 137.14 137.15"><defs><style>.cls-1{fill:#fff;}</style></defs><path class="cls-1" d="M75.43,27.43H61.72v55.7a29.69,29.69,0,0,0-6.86-.84C43.5,82.29,34.29,88.43,34.29,96s9.21,13.72,20.57,13.72c7.59,0,14.15-2.78,17.72-6.86h2.85v-48c23.4-.2,27.43,27.43,27.43,27.43s.77-28.53-6.86-41.15C90.23,31.59,75.43,27.43,75.43,27.43ZM109.71,0H27.43A27.43,27.43,0,0,0,0,27.43v82.29a27.44,27.44,0,0,0,27.43,27.43h82.28a27.43,27.43,0,0,0,27.43-27.43V27.43A27.43,27.43,0,0,0,109.71,0Zm13.72,102.86a20.57,20.57,0,0,1-20.57,20.57H34.29a20.57,20.57,0,0,1-20.58-20.57V34.29A20.58,20.58,0,0,1,34.29,13.71h68.57a20.57,20.57,0,0,1,20.57,20.58v68.57Z" transform="translate(0)"/></svg>