<svg id="Layer_1" data-name="Layer 1" xmlns="http://www.w3.org/2000/svg" viewBox="0 0 137.14 137.14"><defs><style>.cls-1{fill:#fff;}</style></defs><path class="cls-1" d="M109.71,0H27.43A27.43,27.43,0,0,0,0,27.43v82.29a27.43,27.43,0,0,0,27.43,27.42h82.29a27.42,27.42,0,0,0,27.42-27.42V27.43A27.43,27.43,0,0,0,109.71,0Zm13.72,102.86a20.57,20.57,0,0,1-20.57,20.57H61.72V61.72h61.71Zm0-54.86H13.72V61.72H48v61.71H34.29a20.57,20.57,0,0,1-20.58-20.57V61.72h0V48h0V34.29A20.57,20.57,0,0,1,34.29,13.71h68.57a20.57,20.57,0,0,1,20.57,20.58V48Z"/></svg>