<?xml version='1.0' encoding='iso-8859-1'?>
<svg version="1.1" xmlns="http://www.w3.org/2000/svg" viewBox="0 0 137.145 137.145" xmlns:xlink="http://www.w3.org/1999/xlink" enable-background="new 0 0 137.145 137.145">
  <g>
    <g>
      <path d="M109.715,0H27.429C12.28,0,0,12.281,0,27.428v82.287c0,15.148,12.28,27.429,27.429,27.429h82.286    c15.148,0,27.429-12.281,27.429-27.429V27.428C137.144,12.281,124.864,0,109.715,0z M123.43,102.858    c0,11.361-9.21,20.572-20.571,20.572H61.715V61.715h61.715V102.858z M123.43,48H13.715v13.715h34.286v61.715H34.286    c-11.362,0-20.572-9.211-20.572-20.572V61.715h0V48h0V34.286c0-11.361,9.21-20.572,20.572-20.572h68.572    c11.361,0,20.571,9.211,20.571,20.572V48z"/>
    </g>
  </g>
</svg>
