<svg id="Layer_1" data-name="Layer 1" xmlns="http://www.w3.org/2000/svg" viewBox="0 0 137.14 137.14"><defs><style>.cls-1{fill:#fff;}</style></defs><path class="cls-1" d="M54.86,54.86,68.57,34.29H54.86L41.14,54.86ZM27.43,34.29V54.86L41.14,34.29ZM82.29,54.86,96,34.29H82.29L68.57,54.86ZM27.43,109.72h82.29v-48H27.43Zm6.86-41.15h68.57v34.29H34.29ZM109.71,0H27.43A27.43,27.43,0,0,0,0,27.43v82.29a27.43,27.43,0,0,0,27.43,27.42h82.28a27.43,27.43,0,0,0,27.43-27.42V27.43A27.43,27.43,0,0,0,109.71,0Zm13.72,102.86a20.57,20.57,0,0,1-20.57,20.57H34.29a20.57,20.57,0,0,1-20.58-20.57V34.29A20.57,20.57,0,0,1,34.29,13.72h68.57a20.57,20.57,0,0,1,20.57,20.57Zm-13.71-48V34.29L96,54.86ZM61.71,96,82.29,85.29,61.71,75.43Z" transform="translate(0)"/></svg>